<svg width="264" height="67" viewBox="0 0 264 67" fill="none" xmlns="http://www.w3.org/2000/svg">
<mask id="path-1-outside-1_2_77" maskUnits="userSpaceOnUse" x="130.701" y="17.6074" width="118" height="32" fill="black">
<rect fill="white" x="130.701" y="17.6074" width="118" height="32"/>
<path d="M146.518 21.5536L158.598 47.1368L154.552 46.2585L151.728 41.0274H139.609L137.057 46.2585L132.701 47.1368L144.781 21.5536H146.518ZM145.707 27.3576L141.037 37.7817H150.3L145.707 27.3576Z"/>
<path d="M170.986 27.3897C172.401 27.3897 173.624 27.6188 174.653 28.077C175.682 28.5098 176.136 28.9969 176.522 29.3533L176.775 32.43C176.055 31.8954 175.232 31.4372 174.305 31.0553C173.379 30.648 172.273 30.4444 170.986 30.4444C169.623 30.4444 168.426 30.7753 167.397 31.4372C166.368 32.0736 165.57 32.9263 165.004 33.9955C164.464 35.0392 164.194 36.1847 164.194 37.432C164.194 38.6539 164.464 39.7994 165.004 40.8686C165.57 41.9123 166.368 42.765 167.397 43.4269C168.426 44.0633 169.623 44.3815 170.986 44.3815C172.273 44.3815 173.379 44.1906 174.305 43.8087C175.232 43.4014 176.055 42.9305 176.775 42.3959L176.116 45.6558C175.73 46.0377 175.682 46.3543 174.653 46.7871C173.624 47.2198 172.401 47.4362 170.986 47.4362C169.031 47.4362 167.294 46.978 165.776 46.0616C164.258 45.1452 163.062 43.936 162.187 42.4341C161.338 40.9068 160.913 39.2394 160.913 37.432C160.913 35.6247 161.338 33.9573 162.187 32.43C163.062 30.9026 164.258 29.6807 165.776 28.7643C167.294 27.8479 169.031 27.3897 170.986 27.3897Z"/>
<path d="M187.312 22.2731V27.7715H191.576L192.946 30.7117H187.312V41.8995C187.312 42.6887 187.518 43.3123 187.929 43.7705C188.341 44.2288 188.971 44.4579 189.82 44.4579C190.592 44.4579 191.235 44.3688 191.75 44.1906C192.265 43.9869 193.224 43.671 193.61 43.4419L193.101 46.0998C192.586 46.5071 192.033 46.8253 191.441 47.0544C190.875 47.3089 190.103 47.4362 189.126 47.4362C187.479 47.4362 186.231 46.9525 185.382 45.9852C184.559 44.9924 184.147 43.6815 184.147 42.0523V30.7117H180.442V29.7953C181.703 29.2352 182.758 28.3188 183.607 27.046C184.456 25.7478 185.202 24.1568 185.845 22.2731H187.312Z"/>
<path d="M201.785 18.6074C202.531 18.6074 203.148 18.8747 203.637 19.4093C204.152 19.9184 204.409 20.5166 204.409 21.2039C204.409 21.8658 204.152 22.464 203.637 22.9986C203.148 23.5331 202.531 23.8004 201.785 23.8004C201.038 23.8004 200.408 23.5331 199.893 22.9986C199.405 22.464 199.16 21.8658 199.16 21.2039C199.16 20.5166 199.405 19.9184 199.893 19.4093C200.408 18.8747 201.038 18.6074 201.785 18.6074ZM203.753 27.7715V46.8634H200.588V30.7117H197.539V27.7715H203.753Z"/>
<path d="M227.604 27.7715L218.534 46.8634H216.566L207.882 27.7715L211.665 28.6116L217.492 41.8232L222.973 28.6116L227.604 27.7715Z"/>
<path d="M239.028 27.3897C241.009 27.3897 242.656 27.797 243.968 28.6116C245.28 29.4262 246.258 30.5335 246.901 31.9336C247.57 33.3336 247.905 34.9119 247.905 36.6684V38.5394H233.084C233.239 39.6085 233.612 41.1352 234.204 42.0262C234.796 42.9171 235.567 43.6299 236.519 44.1645C237.471 44.6736 238.565 44.9282 239.8 44.9282C241.189 44.9282 242.489 44.5845 243.698 43.8972C244.907 43.1844 245.924 42.408 246.747 41.568L246.476 45.1962C246.116 45.6289 245.808 45.8573 245.087 46.341C244.393 46.7992 243.582 47.181 242.656 47.4865C241.755 47.8174 240.803 47.9829 239.8 47.9829C237.844 47.9829 236.108 47.5247 234.59 46.6082C233.072 45.6918 231.875 44.4827 231 42.9808C230.151 41.4534 229.727 39.2394 229.727 37.432C229.727 35.6247 230.126 33.9573 230.923 32.43C231.721 30.9026 232.814 29.6807 234.204 28.7643C235.619 27.8479 237.227 27.3897 239.028 27.3897ZM239.028 30.4444C237.433 30.4444 236.121 30.979 235.091 32.0481C234.062 33.0918 233.419 34.3646 233.162 35.8665H244.779C244.65 34.6192 244.29 33.6009 243.698 32.8118C243.132 32.0227 242.437 31.4372 241.614 31.0553C240.79 30.648 239.929 30.4444 239.028 30.4444Z"/>
</mask>
<path d="M146.518 21.5536L158.598 47.1368L154.552 46.2585L151.728 41.0274H139.609L137.057 46.2585L132.701 47.1368L144.781 21.5536H146.518ZM145.707 27.3576L141.037 37.7817H150.3L145.707 27.3576Z" fill="#FF5C00"/>
<path d="M170.986 27.3897C172.401 27.3897 173.624 27.6188 174.653 28.077C175.682 28.5098 176.136 28.9969 176.522 29.3533L176.775 32.43C176.055 31.8954 175.232 31.4372 174.305 31.0553C173.379 30.648 172.273 30.4444 170.986 30.4444C169.623 30.4444 168.426 30.7753 167.397 31.4372C166.368 32.0736 165.57 32.9263 165.004 33.9955C164.464 35.0392 164.194 36.1847 164.194 37.432C164.194 38.6539 164.464 39.7994 165.004 40.8686C165.57 41.9123 166.368 42.765 167.397 43.4269C168.426 44.0633 169.623 44.3815 170.986 44.3815C172.273 44.3815 173.379 44.1906 174.305 43.8087C175.232 43.4014 176.055 42.9305 176.775 42.3959L176.116 45.6558C175.73 46.0377 175.682 46.3543 174.653 46.7871C173.624 47.2198 172.401 47.4362 170.986 47.4362C169.031 47.4362 167.294 46.978 165.776 46.0616C164.258 45.1452 163.062 43.936 162.187 42.4341C161.338 40.9068 160.913 39.2394 160.913 37.432C160.913 35.6247 161.338 33.9573 162.187 32.43C163.062 30.9026 164.258 29.6807 165.776 28.7643C167.294 27.8479 169.031 27.3897 170.986 27.3897Z" fill="#FF5C00"/>
<path d="M187.312 22.2731V27.7715H191.576L192.946 30.7117H187.312V41.8995C187.312 42.6887 187.518 43.3123 187.929 43.7705C188.341 44.2288 188.971 44.4579 189.82 44.4579C190.592 44.4579 191.235 44.3688 191.75 44.1906C192.265 43.9869 193.224 43.671 193.61 43.4419L193.101 46.0998C192.586 46.5071 192.033 46.8253 191.441 47.0544C190.875 47.3089 190.103 47.4362 189.126 47.4362C187.479 47.4362 186.231 46.9525 185.382 45.9852C184.559 44.9924 184.147 43.6815 184.147 42.0523V30.7117H180.442V29.7953C181.703 29.2352 182.758 28.3188 183.607 27.046C184.456 25.7478 185.202 24.1568 185.845 22.2731H187.312Z" fill="#FF5C00"/>
<path d="M201.785 18.6074C202.531 18.6074 203.148 18.8747 203.637 19.4093C204.152 19.9184 204.409 20.5166 204.409 21.2039C204.409 21.8658 204.152 22.464 203.637 22.9986C203.148 23.5331 202.531 23.8004 201.785 23.8004C201.038 23.8004 200.408 23.5331 199.893 22.9986C199.405 22.464 199.16 21.8658 199.16 21.2039C199.16 20.5166 199.405 19.9184 199.893 19.4093C200.408 18.8747 201.038 18.6074 201.785 18.6074ZM203.753 27.7715V46.8634H200.588V30.7117H197.539V27.7715H203.753Z" fill="#FF5C00"/>
<path d="M227.604 27.7715L218.534 46.8634H216.566L207.882 27.7715L211.665 28.6116L217.492 41.8232L222.973 28.6116L227.604 27.7715Z" fill="#FF5C00"/>
<path d="M239.028 27.3897C241.009 27.3897 242.656 27.797 243.968 28.6116C245.28 29.4262 246.258 30.5335 246.901 31.9336C247.57 33.3336 247.905 34.9119 247.905 36.6684V38.5394H233.084C233.239 39.6085 233.612 41.1352 234.204 42.0262C234.796 42.9171 235.567 43.6299 236.519 44.1645C237.471 44.6736 238.565 44.9282 239.8 44.9282C241.189 44.9282 242.489 44.5845 243.698 43.8972C244.907 43.1844 245.924 42.408 246.747 41.568L246.476 45.1962C246.116 45.6289 245.808 45.8573 245.087 46.341C244.393 46.7992 243.582 47.181 242.656 47.4865C241.755 47.8174 240.803 47.9829 239.8 47.9829C237.844 47.9829 236.108 47.5247 234.59 46.6082C233.072 45.6918 231.875 44.4827 231 42.9808C230.151 41.4534 229.727 39.2394 229.727 37.432C229.727 35.6247 230.126 33.9573 230.923 32.43C231.721 30.9026 232.814 29.6807 234.204 28.7643C235.619 27.8479 237.227 27.3897 239.028 27.3897ZM239.028 30.4444C237.433 30.4444 236.121 30.979 235.091 32.0481C234.062 33.0918 233.419 34.3646 233.162 35.8665H244.779C244.65 34.6192 244.29 33.6009 243.698 32.8118C243.132 32.0227 242.437 31.4372 241.614 31.0553C240.79 30.648 239.929 30.4444 239.028 30.4444Z" fill="#FF5C00"/>
<path d="M146.518 21.5536L158.598 47.1368L154.552 46.2585L151.728 41.0274H139.609L137.057 46.2585L132.701 47.1368L144.781 21.5536H146.518ZM145.707 27.3576L141.037 37.7817H150.3L145.707 27.3576Z" stroke="#FF5C00" stroke-width="1.36665" mask="url(#path-1-outside-1_2_77)"/>
<path d="M170.986 27.3897C172.401 27.3897 173.624 27.6188 174.653 28.077C175.682 28.5098 176.136 28.9969 176.522 29.3533L176.775 32.43C176.055 31.8954 175.232 31.4372 174.305 31.0553C173.379 30.648 172.273 30.4444 170.986 30.4444C169.623 30.4444 168.426 30.7753 167.397 31.4372C166.368 32.0736 165.57 32.9263 165.004 33.9955C164.464 35.0392 164.194 36.1847 164.194 37.432C164.194 38.6539 164.464 39.7994 165.004 40.8686C165.57 41.9123 166.368 42.765 167.397 43.4269C168.426 44.0633 169.623 44.3815 170.986 44.3815C172.273 44.3815 173.379 44.1906 174.305 43.8087C175.232 43.4014 176.055 42.9305 176.775 42.3959L176.116 45.6558C175.73 46.0377 175.682 46.3543 174.653 46.7871C173.624 47.2198 172.401 47.4362 170.986 47.4362C169.031 47.4362 167.294 46.978 165.776 46.0616C164.258 45.1452 163.062 43.936 162.187 42.4341C161.338 40.9068 160.913 39.2394 160.913 37.432C160.913 35.6247 161.338 33.9573 162.187 32.43C163.062 30.9026 164.258 29.6807 165.776 28.7643C167.294 27.8479 169.031 27.3897 170.986 27.3897Z" stroke="#FF5C00" stroke-width="1.36665" mask="url(#path-1-outside-1_2_77)"/>
<path d="M187.312 22.2731V27.7715H191.576L192.946 30.7117H187.312V41.8995C187.312 42.6887 187.518 43.3123 187.929 43.7705C188.341 44.2288 188.971 44.4579 189.82 44.4579C190.592 44.4579 191.235 44.3688 191.75 44.1906C192.265 43.9869 193.224 43.671 193.61 43.4419L193.101 46.0998C192.586 46.5071 192.033 46.8253 191.441 47.0544C190.875 47.3089 190.103 47.4362 189.126 47.4362C187.479 47.4362 186.231 46.9525 185.382 45.9852C184.559 44.9924 184.147 43.6815 184.147 42.0523V30.7117H180.442V29.7953C181.703 29.2352 182.758 28.3188 183.607 27.046C184.456 25.7478 185.202 24.1568 185.845 22.2731H187.312Z" stroke="#FF5C00" stroke-width="1.36665" mask="url(#path-1-outside-1_2_77)"/>
<path d="M201.785 18.6074C202.531 18.6074 203.148 18.8747 203.637 19.4093C204.152 19.9184 204.409 20.5166 204.409 21.2039C204.409 21.8658 204.152 22.464 203.637 22.9986C203.148 23.5331 202.531 23.8004 201.785 23.8004C201.038 23.8004 200.408 23.5331 199.893 22.9986C199.405 22.464 199.16 21.8658 199.16 21.2039C199.16 20.5166 199.405 19.9184 199.893 19.4093C200.408 18.8747 201.038 18.6074 201.785 18.6074ZM203.753 27.7715V46.8634H200.588V30.7117H197.539V27.7715H203.753Z" stroke="#FF5C00" stroke-width="1.36665" mask="url(#path-1-outside-1_2_77)"/>
<path d="M227.604 27.7715L218.534 46.8634H216.566L207.882 27.7715L211.665 28.6116L217.492 41.8232L222.973 28.6116L227.604 27.7715Z" stroke="#FF5C00" stroke-width="1.36665" mask="url(#path-1-outside-1_2_77)"/>
<path d="M239.028 27.3897C241.009 27.3897 242.656 27.797 243.968 28.6116C245.28 29.4262 246.258 30.5335 246.901 31.9336C247.57 33.3336 247.905 34.9119 247.905 36.6684V38.5394H233.084C233.239 39.6085 233.612 41.1352 234.204 42.0262C234.796 42.9171 235.567 43.6299 236.519 44.1645C237.471 44.6736 238.565 44.9282 239.8 44.9282C241.189 44.9282 242.489 44.5845 243.698 43.8972C244.907 43.1844 245.924 42.408 246.747 41.568L246.476 45.1962C246.116 45.6289 245.808 45.8573 245.087 46.341C244.393 46.7992 243.582 47.181 242.656 47.4865C241.755 47.8174 240.803 47.9829 239.8 47.9829C237.844 47.9829 236.108 47.5247 234.59 46.6082C233.072 45.6918 231.875 44.4827 231 42.9808C230.151 41.4534 229.727 39.2394 229.727 37.432C229.727 35.6247 230.126 33.9573 230.923 32.43C231.721 30.9026 232.814 29.6807 234.204 28.7643C235.619 27.8479 237.227 27.3897 239.028 27.3897ZM239.028 30.4444C237.433 30.4444 236.121 30.979 235.091 32.0481C234.062 33.0918 233.419 34.3646 233.162 35.8665H244.779C244.65 34.6192 244.29 33.6009 243.698 32.8118C243.132 32.0227 242.437 31.4372 241.614 31.0553C240.79 30.648 239.929 30.4444 239.028 30.4444Z" stroke="#FF5C00" stroke-width="1.36665" mask="url(#path-1-outside-1_2_77)"/>
<path d="M37.0634 23.674V23.8248V27.6166V28.2866L36.5211 27.8932C35.9616 27.4873 35.3248 27.0426 34.6105 26.559L34.6057 26.5558L34.6057 26.5557C33.9421 26.0899 33.1495 25.6811 32.2241 25.3318L32.2135 25.3278L32.2136 25.3276C31.3443 24.9663 30.278 24.7793 29.0044 24.7793C27.1381 24.7793 25.483 25.2007 24.0298 26.0361C22.5731 26.8735 21.4264 28.0293 20.5858 29.5089L20.5846 29.5111L20.5846 29.5111C19.7473 30.9605 19.325 32.6113 19.325 34.4725C19.325 36.3338 19.7473 37.9845 20.5846 39.434C21.4249 40.8886 22.5723 42.0461 24.0316 42.91C25.4844 43.7447 27.1389 44.1658 29.0044 44.1658C30.9392 44.1658 32.5637 43.8524 33.8896 43.2403C35.2823 42.5835 36.4108 41.919 37.2812 41.2492L37.8313 40.8259V41.5199V44.967V45.1211L37.7158 45.2231C36.7832 46.0471 35.5692 46.7548 34.0849 47.3522L34.082 47.3534L34.082 47.3534C32.6013 47.9337 30.9067 48.2196 29.0044 48.2196C27.0179 48.2196 25.1805 47.8674 23.4966 47.1587L23.4924 47.157L23.4924 47.1569C21.8164 46.4255 20.3473 45.4314 19.0876 44.1748C17.8279 42.9182 16.8435 41.4646 16.1354 39.8163L16.1328 39.8104L16.1329 39.8103C15.45 38.1335 15.1094 36.3533 15.1094 34.4725C15.1094 32.5918 15.45 30.8236 16.1336 29.1713L16.1346 29.1688L16.1346 29.1688C16.8425 27.4949 17.827 26.0278 19.0876 24.7703C20.3477 23.5133 21.8176 22.5316 23.4945 21.8255C25.1789 21.0908 27.017 20.7255 29.0044 20.7255C30.8995 20.7255 32.473 20.9838 33.7081 21.5192M37.0634 23.674L33.7093 21.5197C33.7089 21.5195 33.7085 21.5194 33.7081 21.5192M37.0634 23.674L36.952 23.5724M37.0634 23.674L36.952 23.5724M33.7081 21.5192C34.9434 22.0437 36.0257 22.7276 36.952 23.5724M33.7081 21.5192L36.952 23.5724" fill="#006180" stroke="#006180" stroke-width="0.683326"/>
<path d="M46.2929 20.2473V19.7305L45.8174 19.933L42.669 21.2735L42.4612 21.362V21.5879V47.8241V48.1658H42.8029H45.9512H46.2929V47.8241V20.2473Z" fill="#006180" stroke="#006180" stroke-width="0.683326"/>
<path d="M105.008 28.4473V27.9858L104.566 28.1205L101.303 29.1163L101.061 29.1901V29.4431V39.7844C101.061 41.3718 100.586 42.5458 99.6774 43.3597C98.7661 44.1731 97.7204 44.5751 96.5263 44.5751C95.3333 44.5751 94.2744 44.1738 93.3369 43.3598C92.4541 42.5467 91.9918 41.3727 91.9918 39.7844V29.3282V29.0665L91.7392 28.9983L88.4756 28.1174L88.0449 28.0012V28.4473V39.7844C88.0449 41.5189 88.4141 43.0362 89.1667 44.3232C89.9145 45.6019 90.9326 46.5914 92.2172 47.2856C93.5006 47.9791 94.9396 48.3225 96.5263 48.3225C98.113 48.3225 99.552 47.9791 100.835 47.2856C102.12 46.5914 103.138 45.6019 103.886 44.3232C104.638 43.0362 105.008 41.5189 105.008 39.7844V28.4473Z" fill="#006180" stroke="#006180" stroke-width="0.683326"/>
<path d="M128.975 18.8807V18.3639L128.499 18.5664L125.351 19.9069L125.143 19.9954V20.2213V29.8149C124.422 29.1469 123.598 28.607 122.671 28.1957C121.507 27.6418 120.345 27.3601 119.188 27.3601C117.39 27.3601 115.756 27.7959 114.292 28.6714C112.827 29.5225 111.67 30.745 110.824 32.3284L110.824 32.3283L110.822 32.3323C109.998 33.9228 109.593 35.8048 109.593 37.9665C109.593 39.9546 110 41.7224 110.824 43.2602L110.824 43.2602L110.826 43.2642C111.672 44.7931 112.799 45.9992 114.208 46.8745L114.208 46.8745L114.212 46.8769C115.624 47.7272 117.183 48.1516 118.881 48.1516C120.403 48.1516 121.763 47.7511 122.949 46.9444C123.809 46.3728 124.541 45.729 125.143 45.0121V47.2354V47.577H125.485H128.633H128.975V47.2354V18.8807ZM116.424 32.1588L116.424 32.1589L116.429 32.1554C117.335 31.5131 118.441 31.1842 119.764 31.1842C120.888 31.1842 121.862 31.4394 122.699 31.94L122.698 31.94L122.702 31.9421C123.553 32.4372 124.355 33.1427 125.106 34.0668L125.143 37.6254L125.143 37.6283C125.168 38.9326 124.921 40.1032 124.411 41.147C123.898 42.1702 123.207 42.9652 122.339 43.5421C121.477 44.1152 120.495 44.4041 119.38 44.4041C118.212 44.4041 117.19 44.114 116.304 43.5409C115.435 42.9625 114.758 42.1923 114.273 41.2237C113.785 40.2264 113.54 39.1423 113.54 37.9665C113.54 36.7647 113.785 35.6545 114.273 34.6313C114.785 33.6111 115.501 32.7887 116.424 32.1588Z" fill="#006180" stroke="#006180" stroke-width="0.683326"/>
<mask id="path-6-outside-2_2_77" maskUnits="userSpaceOnUse" x="49.0232" y="22.2606" width="36" height="27" fill="black">
<rect fill="white" x="49.0232" y="22.2606" width="36" height="27"/>
<path fill-rule="evenodd" clip-rule="evenodd" d="M59.1604 34.2034C59.1937 29.8111 62.8029 26.2606 67.2503 26.2606C71.6123 26.2606 75.168 29.6761 75.3343 33.9514L75.3381 33.9514C78.6723 33.8994 81.4032 36.588 81.4032 39.9227C81.4032 43.221 78.7294 45.8948 75.4311 45.8948H58.8666C55.451 45.8948 52.7636 42.9777 53.0432 39.5735C53.2893 36.5769 55.7693 34.2563 58.7756 34.2094L59.1604 34.2034Z"/>
</mask>
<path d="M59.1604 34.2034L59.2073 37.2097L62.1447 37.1639L62.167 34.2262L59.1604 34.2034ZM75.3343 33.9514L72.3299 34.0683L72.4441 37.0033L75.381 36.9577L75.3343 33.9514ZM75.3381 33.9514L75.3847 36.9576L75.3849 36.9576L75.3381 33.9514ZM53.0432 39.5735L56.0397 39.8196L53.0432 39.5735ZM58.7756 34.2094L58.7287 31.2032L58.7287 31.2032L58.7756 34.2094ZM62.167 34.2262C62.1875 31.5141 64.4257 29.2673 67.2503 29.2673V23.254C61.1801 23.254 56.1999 28.1081 56.1539 34.1806L62.167 34.2262ZM67.2503 29.2673C70.0196 29.2673 72.2273 31.429 72.3299 34.0683L78.3386 33.8346C78.1087 27.9232 73.205 23.254 67.2503 23.254V29.2673ZM75.381 36.9577L75.3847 36.9576L75.2914 30.9451L75.2876 30.9452L75.381 36.9577ZM75.3849 36.9576C77.0405 36.9318 78.3966 38.2669 78.3966 39.9227H84.4098C84.4098 34.9092 80.3041 30.867 75.2912 30.9451L75.3849 36.9576ZM78.3966 39.9227C78.3966 41.5605 77.0689 42.8882 75.4311 42.8882V48.9015C80.3899 48.9015 84.4098 44.8816 84.4098 39.9227H78.3966ZM75.4311 42.8882H58.8666V48.9015H75.4311V42.8882ZM58.8666 42.8882C57.2085 42.8882 55.904 41.4721 56.0397 39.8196L50.0466 39.3274C49.6232 44.4833 53.6934 48.9015 58.8666 48.9015V42.8882ZM56.0397 39.8196C56.1592 38.365 57.3631 37.2384 58.8224 37.2157L58.7287 31.2032C54.1755 31.2741 50.4193 34.7889 50.0466 39.3274L56.0397 39.8196ZM58.8224 37.2157L59.2073 37.2097L59.1136 31.1972L58.7287 31.2032L58.8224 37.2157Z" fill="#FF5C00" mask="url(#path-6-outside-2_2_77)"/>
<path d="M64.0961 46.9301H65.5994V45.4268V40.0087C65.5994 36.1107 62.4078 32.9696 58.5307 32.9696C54.6861 32.9696 51.5212 36.0843 51.5212 39.9498C51.5212 43.8049 54.6463 46.9301 58.5014 46.9301H64.0961Z" stroke="#FF5C00" stroke-width="3.00663"/>
</svg>
